<svg xmlns="http://www.w3.org/2000/svg" viewBox="0 0 512 512">
  <defs>
    <linearGradient id="grad" x1="0%" y1="0%" x2="100%" y2="100%">
      <stop offset="0%" style="stop-color:#10b981;stop-opacity:1" />
      <stop offset="100%" style="stop-color:#14b8a6;stop-opacity:1" />
    </linearGradient>
  </defs>
  <rect width="512" height="512" rx="96" fill="#070605"/>
  <rect x="56" y="56" width="400" height="400" rx="72" fill="url(#grad)"/>
  <path d="M256 140c-64 0-116 52-116 116s52 116 116 116 116-52 116-116-52-116-116-116zm0 180c-35.3 0-64-28.7-64-64s28.7-64 64-64 64 28.7 64 64-28.7 64-64 64z" fill="#070605" opacity="0.3"/>
  <path d="M256 180v76l52 52" stroke="#fff" stroke-width="20" stroke-linecap="round" stroke-linejoin="round" fill="none"/>
  <circle cx="256" cy="256" r="12" fill="#fff"/>
</svg>
